HIERARCHY
ROOT Hips
{
  OFFSET 78.2175 91.4725 961.623
  CHANNELS 6 Xposition Yposition Zposition Zrotation Xrotation Yrotation
  JOINT Spine
  {
    OFFSET 0 8 0
    CHANNELS 6 Xposition Yposition Zposition Zrotation Xrotation Yrotation
    JOINT Spine1
    {
      OFFSET 0 8 0
      CHANNELS 6 Xposition Yposition Zposition Zrotation Xrotation Yrotation
      JOINT Spine2
      {
        OFFSET 0 8 0
        CHANNELS 6 Xposition Yposition Zposition Zrotation Xrotation Yrotation
        JOINT Spine3
        {
          OFFSET 0 8 0
          CHANNELS 6 Xposition Yposition Zposition Zrotation Xrotation Yrotation
          JOINT Neck
          {
            OFFSET 0 17 0
            CHANNELS 6 Xposition Yposition Zposition Zrotation Xrotation Yrotation
            JOINT Head
            {
              OFFSET 0 10.8 0
              CHANNELS 6 Xposition Yposition Zposition Zrotation Xrotation Yrotation
              End Site
              {
                OFFSET 0 20.25 0
              }
            }
          }
          JOINT LeftShoulder
          {
            OFFSET 5 17 0
            CHANNELS 6 Xposition Yposition Zposition Zrotation Xrotation Yrotation
            JOINT LeftShoulder2
            {
              OFFSET 6.45 0 0
              CHANNELS 6 Xposition Yposition Zposition Zrotation Xrotation Yrotation
              JOINT LeftArm
              {
                OFFSET 6.45 0 0
                CHANNELS 6 Xposition Yposition Zposition Zrotation Xrotation Yrotation
                JOINT LeftForeArm
                {
                  OFFSET 0 -32.4 -2
                  CHANNELS 6 Xposition Yposition Zposition Zrotation Xrotation Yrotation
                  JOINT LeftHand
                  {
                    OFFSET 0 -25.65 2
                    CHANNELS 6 Xposition Yposition Zposition Zrotation Xrotation Yrotation
                    JOINT LeftHandThumb1
                    {
                      OFFSET -0.5 -1.5 2.65
                      CHANNELS 6 Xposition Yposition Zposition Zrotation Xrotation Yrotation
                      JOINT LeftHandThumb2
                      {
                        OFFSET 0 -3.8 3.7
                        CHANNELS 6 Xposition Yposition Zposition Zrotation Xrotation Yrotation
                        JOINT LeftHandThumb3
                        {
                          OFFSET 0 -3 2.7
                          CHANNELS 6 Xposition Yposition Zposition Zrotation Xrotation Yrotation
                          End Site
                          {
                            OFFSET 0 -2.3 1.8
                          }
                        }
                      }
                    }
                    JOINT LeftHandIndex
                    {
                      OFFSET 0 -1.9 1.6
                      CHANNELS 6 Xposition Yposition Zposition Zrotation Xrotation Yrotation
                      JOINT LeftHandIndex1
                      {
                        OFFSET 0 -8.3 1.9
                        CHANNELS 6 Xposition Yposition Zposition Zrotation Xrotation Yrotation
                        JOINT LeftHandIndex2
                        {
                          OFFSET 0 -4.5 0
                          CHANNELS 6 Xposition Yposition Zposition Zrotation Xrotation Yrotation
                          JOINT LeftHandIndex3
                          {
                            OFFSET 0 -3.4 0
                            CHANNELS 6 Xposition Yposition Zposition Zrotation Xrotation Yrotation
                            End Site
                            {
                              OFFSET 0 -2.6 0
                            }
                          }
                        }
                      }
                    }
                    JOINT LeftHandMiddle
                    {
                      OFFSET -0.25 -2.2 0.4
                      CHANNELS 6 Xposition Yposition Zposition Zrotation Xrotation Yrotation
                      JOINT LeftHandMiddle1
                      {
                        OFFSET 0 -8.3 1
                        CHANNELS 6 Xposition Yposition Zposition Zrotation Xrotation Yrotation
                        JOINT LeftHandMiddle2
                        {
                          OFFSET 0 -4.65 0
                          CHANNELS 6 Xposition Yposition Zposition Zrotation Xrotation Yrotation
                          JOINT LeftHandMiddle3
                          {
                            OFFSET 0 -3.3 0
                            CHANNELS 6 Xposition Yposition Zposition Zrotation Xrotation Yrotation
                            End Site
                            {
                              OFFSET 0 -2.7 0
                            }
                          }
                        }
                      }
                    }
                    JOINT LeftHandRing
                    {
                      OFFSET -0.5 -2.15 -0.8
                      CHANNELS 6 Xposition Yposition Zposition Zrotation Xrotation Yrotation
                      JOINT LeftHandRing1
                      {
                        OFFSET 0 -7.75 -0.2
                        CHANNELS 6 Xposition Yposition Zposition Zrotation Xrotation Yrotation
                        JOINT LeftHandRing2
                        {
                          OFFSET 0 -3.8 0
                          CHANNELS 6 Xposition Yposition Zposition Zrotation Xrotation Yrotation
                          JOINT LeftHandRing3
                          {
                            OFFSET 0 -3.4 0
                            CHANNELS 6 Xposition Yposition Zposition Zrotation Xrotation Yrotation
                            End Site
                            {
                              OFFSET 0 -2.6 0
                            }
                          }
                        }
                      }
                    }
                    JOINT LeftHandPinky
                    {
                      OFFSET -0.75 -1.75 -1.85
                      CHANNELS 6 Xposition Yposition Zposition Zrotation Xrotation Yrotation
                      JOINT LeftHandPinky1
                      {
                        OFFSET 0 -7.15 -1
                        CHANNELS 6 Xposition Yposition Zposition Zrotation Xrotation Yrotation
                        JOINT LeftHandPinky2
                        {
                          OFFSET 0 -3 0
                          CHANNELS 6 Xposition Yposition Zposition Zrotation Xrotation Yrotation
                          JOINT LeftHandPinky3
                          {
                            OFFSET 0 -2.35 0
                            CHANNELS 6 Xposition Yposition Zposition Zrotation Xrotation Yrotation
                            End Site
                            {
                              OFFSET 0 -2.1 0
                            }
                          }
                        }
                      }
                    }
                  }
                }
              }
            }
          }
          JOINT RightShoulder
          {
            OFFSET -5 17 0
            CHANNELS 6 Xposition Yposition Zposition Zrotation Xrotation Yrotation
            JOINT RightShoulder2
            {
              OFFSET -6.45 0 0
              CHANNELS 6 Xposition Yposition Zposition Zrotation Xrotation Yrotation
              JOINT RightArm
              {
                OFFSET -6.45 0 0
                CHANNELS 6 Xposition Yposition Zposition Zrotation Xrotation Yrotation
                JOINT RightForeArm
                {
                  OFFSET 0 -32.4 -2
                  CHANNELS 6 Xposition Yposition Zposition Zrotation Xrotation Yrotation
                  JOINT RightHand
                  {
                    OFFSET 0 -25.65 2
                    CHANNELS 6 Xposition Yposition Zposition Zrotation Xrotation Yrotation
                    JOINT RightHandThumb1
                    {
                      OFFSET 0.5 -1.5 2.65
                      CHANNELS 6 Xposition Yposition Zposition Zrotation Xrotation Yrotation
                      JOINT RightHandThumb2
                      {
                        OFFSET 0 -3.8 3.7
                        CHANNELS 6 Xposition Yposition Zposition Zrotation Xrotation Yrotation
                        JOINT RightHandThumb3
                        {
                          OFFSET 0 -3 2.7
                          CHANNELS 6 Xposition Yposition Zposition Zrotation Xrotation Yrotation
                          End Site
                          {
                            OFFSET 0 -2.3 1.8
                          }
                        }
                      }
                    }
                    JOINT RightHandIndex
                    {
                      OFFSET 0 -1.9 1.6
                      CHANNELS 6 Xposition Yposition Zposition Zrotation Xrotation Yrotation
                      JOINT RightHandIndex1
                      {
                        OFFSET 0 -8.3 1.9
                        CHANNELS 6 Xposition Yposition Zposition Zrotation Xrotation Yrotation
                        JOINT RightHandIndex2
                        {
                          OFFSET 0 -4.5 0
                          CHANNELS 6 Xposition Yposition Zposition Zrotation Xrotation Yrotation
                          JOINT RightHandIndex3
                          {
                            OFFSET 0 -3.4 0
                            CHANNELS 6 Xposition Yposition Zposition Zrotation Xrotation Yrotation
                            End Site
                            {
                              OFFSET 0 -2.6 0
                            }
                          }
                        }
                      }
                    }
                    JOINT RightHandMiddle
                    {
                      OFFSET 0.25 -2.2 0.4
                      CHANNELS 6 Xposition Yposition Zposition Zrotation Xrotation Yrotation
                      JOINT RightHandMiddle1
                      {
                        OFFSET 0 -8.3 1
                        CHANNELS 6 Xposition Yposition Zposition Zrotation Xrotation Yrotation
                        JOINT RightHandMiddle2
                        {
                          OFFSET 0 -4.65 0
                          CHANNELS 6 Xposition Yposition Zposition Zrotation Xrotation Yrotation
                          JOINT RightHandMiddle3
                          {
                            OFFSET 0 -3.3 0
                            CHANNELS 6 Xposition Yposition Zposition Zrotation Xrotation Yrotation
                            End Site
                            {
                              OFFSET 0 -2.7 0
                            }
                          }
                        }
                      }
                    }
                    JOINT RightHandRing
                    {
                      OFFSET 0.5 -2.15 -0.8
                      CHANNELS 6 Xposition Yposition Zposition Zrotation Xrotation Yrotation
                      JOINT RightHandRing1
                      {
                        OFFSET 0 -7.75 -0.2
                        CHANNELS 6 Xposition Yposition Zposition Zrotation Xrotation Yrotation
                        JOINT RightHandRing2
                        {
                          OFFSET 0 -3.8 0
                          CHANNELS 6 Xposition Yposition Zposition Zrotation Xrotation Yrotation
                          JOINT RightHandRing3
                          {
                            OFFSET 0 -3.4 0
                            CHANNELS 6 Xposition Yposition Zposition Zrotation Xrotation Yrotation
                            End Site
                            {
                              OFFSET 0 -2.6 0
                            }
                          }
                        }
                      }
                    }
                    JOINT RightHandPinky
                    {
                      OFFSET 0.75 -1.75 -1.85
                      CHANNELS 6 Xposition Yposition Zposition Zrotation Xrotation Yrotation
                      JOINT RightHandPinky1
                      {
                        OFFSET 0 -7.15 -1
                        CHANNELS 6 Xposition Yposition Zposition Zrotation Xrotation Yrotation
                        JOINT RightHandPinky2
                        {
                          OFFSET 0 -3 0
                          CHANNELS 6 Xposition Yposition Zposition Zrotation Xrotation Yrotation
                          JOINT RightHandPinky3
                          {
                            OFFSET 0 -2.35 0
                            CHANNELS 6 Xposition Yposition Zposition Zrotation Xrotation Yrotation
                            End Site
                            {
                              OFFSET 0 -2.1 0
                            }
                          }
                        }
                      }
                    }
                  }
                }
              }
            }
          }
        }
      }
    }
  }
  JOINT LeftUpLeg
  {
    OFFSET 8 0 0
    CHANNELS 6 Xposition Yposition Zposition Zrotation Xrotation Yrotation
    JOINT LeftLeg
    {
      OFFSET 0 -45 -1
      CHANNELS 6 Xposition Yposition Zposition Zrotation Xrotation Yrotation
      JOINT LeftFoot
      {
        OFFSET 0 -41 -2
        CHANNELS 6 Xposition Yposition Zposition Zrotation Xrotation Yrotation
        JOINT LeftToeBase
        {
          OFFSET 0 -7.5 12.5
          CHANNELS 6 Xposition Yposition Zposition Zrotation Xrotation Yrotation
          JOINT LeftFootToe
          {
            OFFSET 0 0 4
            CHANNELS 6 Xposition Yposition Zposition Zrotation Xrotation Yrotation
            End Site
            {
              OFFSET 0 0 0
            }
          }
        }
      }
    }
  }
  JOINT RightUpLeg
  {
    OFFSET -8 0 0
    CHANNELS 6 Xposition Yposition Zposition Zrotation Xrotation Yrotation
    JOINT RightLeg
    {
      OFFSET 0 -45 -1
      CHANNELS 6 Xposition Yposition Zposition Zrotation Xrotation Yrotation
      JOINT RightFoot
      {
        OFFSET 0 -41 -2
        CHANNELS 6 Xposition Yposition Zposition Zrotation Xrotation Yrotation
        JOINT RightToeBase
        {
          OFFSET 0 -7.5 12.5
          CHANNELS 6 Xposition Yposition Zposition Zrotation Xrotation Yrotation
          JOINT RightFootToe
          {
            OFFSET 0 0 4
            CHANNELS 6 Xposition Yposition Zposition Zrotation Xrotation Yrotation
            End Site
            {
              OFFSET 0 0 0
            }
          }
        }
      }
    }
  }
}
MOTION
Frames:	3
Frame Time:	0.0111111
163.753 92.0724 1021.06 -3.65461 -4.13063 45.4125 0 8 0 9.35244 3.2159 -4.17537 0 8 0 -1.39434 0.0426462 -3.09966 5.68434e-14 8 0 -0.697588 0.0119358 -1.55033 5.68434e-14 8 1.13687e-13 -0.697306 0.0118844 -1.54964 -5.68434e-14 17 -1.13687e-13 -1.51008 4.67991 16.2892 0 10.8 -1.13687e-13 -4.84215 -5.32095 37.984 5 17 -1.13687e-13 -6.861 7.76175 0.655418 6.45 0 0 0.356198 0.321317 0.409612 6.45 5.68434e-14 0 -0.112343 -9.56747 7.83126 1.13687e-13 -32.4 -2 -10.576 -58.2639 18.347 0 -25.65 2 22.8164 0.305082 39.7633 -0.5 -1.5 2.65 -10.4019 -19.0572 -4.90386 0 -3.8 3.7 -0.201413 18.7777 0.0646205 0 -3 2.7 0.082784 41.0016 -0.141141 0 -1.9 1.6 -0 -1.59028e-15 -0 0 -8.3 1.9 -15.0013 -1.16056 -0.0649165 -1.13687e-13 -4.5 1.13687e-13 -78.7647 0.00365328 0.00338936 0 -3.4 5.68434e-14 -63.9061 -0.0226837 0.0074374 -0.25 -2.2 0.4 -0 -1.59028e-15 -0 1.13687e-13 -8.3 1 -45.9027 6.24808 4.50513 0 -4.65 5.68434e-14 -66.225 0.00664256 0.0265846 0 -3.3 1.13687e-13 -47.856 0.00307567 0.00573076 -0.5 -2.15 -0.8 -0 -1.59028e-15 -0 -1.13687e-13 -7.75 -0.2 -67.391 3.5598 7.42072 1.42109e-14 -3.8 5.68434e-14 -42.6672 0.00473415 0.00522195 1.13687e-13 -3.4 -5.68434e-14 -28.8915 0.00529564 0.00444582 -0.75 -1.75 -1.85 -0 -1.59028e-15 -0 0 -7.15 -1 -72.853 4.23034 10.2396 2.84217e-14 -3 0 -57.7253 -0.0098323 0.00655111 1.13687e-13 -2.35 0 -40.1264 -0.0100586 -0.00355488 -5 17 -1.13687e-13 -3.58685 9.71648 -4.67993 -6.45 0 0 -1.65889 -0.421671 1.88421 -6.45 0 -1.13687e-13 -37.6652 -2.03693 12.7785 -1.13687e-13 -32.4 -2 28.5005 -46.0708 45.6018 1.13687e-13 -25.65 2 -43.4489 -18.8135 30.858 0.5 -1.5 2.65 65.948 -10.9896 -15.0132 0 -3.8 3.7 -0.116558 -0.0971199 -0.128771 0 -3 2.7 0.467069 37.0817 -0.767503 2.84217e-14 -1.9 1.6 1.57142e-06 -1.66998e-05 -4.53609e-07 0 -8.3 1.9 19.0296 -7.2634 1.04683 5.68434e-14 -4.5 1.13687e-13 59.8974 -0.0206908 -0.00538406 0 -3.4 -1.13687e-13 42.0072 -0.0155957 0.00224902 0.25 -2.2 0.4 1.57142e-06 -1.66998e-05 -4.53609e-07 5.68434e-14 -8.3 1 24.9939 -6.53716 0.640603 -1.13687e-13 -4.65 -1.13687e-13 88.2514 0.0146567 -0.014182 0 -3.3 -2.27374e-13 84.2575 -0.00413485 -0.0170925 0.5 -2.15 -0.8 1.57142e-06 -1.66998e-05 -4.53609e-07 0 -7.75 -0.2 37.1466 -4.91437 -0.321351 0 -3.8 0 85.1436 0.00531437 -0.00215501 0 -3.4 0 76.1779 -0.00351945 -0.00584451 0.75 -1.75 -1.85 1.57142e-06 -1.66998e-05 -4.53609e-07 -5.68434e-14 -7.15 -1 50.2475 -4.40778 -1.13705 2.27374e-13 -3 0 59.3545 0.000969382 0.0106704 1.13687e-13 -2.35 0 41.53 0.000478687 -0.00634332 8 0 0 31.1423 -29.1974 45.1675 0 -45 -1 -0.236804 45.9 -12.8946 1.13687e-13 -41 -2 9.32334 -29.2346 -3.60048 -1.13687e-13 -7.5 12.5 1.13695e-07 1.8148e-06 -2.56235e-06 1.13687e-13 -1.42109e-14 4 6.11968 0.504285 15.5946 -8 0 0 3.36692 -0.140865 -20.5804 -5.68434e-14 -45 -1 -0.101265 8.42579 -0.787401 0 -41 -2 4.42765 -6.77072 8.44188 -5.68434e-14 -7.5 12.5 -0.000181217 2.68184e-06 1.74631e-05 0 -3.55271e-15 4 -0.749279 4.65365 24.5768 
164.063 92.0621 1021.24 -3.68432 -4.08558 45.1144 0 8 0 9.21198 3.36679 -4.30307 0 8 0 -1.34824 0.0708845 -3.15772 0 8 0 -0.674736 0.0262015 -1.57945 5.68434e-14 8 0 -0.674458 0.0261402 -1.57875 -1.13687e-13 17 0 -1.66772 4.62505 16.2609 0 10.8 0 -4.72383 -5.44955 37.8985 5 17 1.13687e-13 -6.98859 7.75514 0.700118 6.45 0 0 0.367803 0.325005 0.402892 6.45 0 1.13687e-13 -0.0605379 -9.35903 8.17818 0 -32.4 -2 -11.2993 -58.7358 17.7849 1.13687e-13 -25.65 2 21.6504 -0.741445 39.8157 -0.5 -1.5 2.65 -10.4064 -18.3644 -5.12143 -1.13687e-13 -3.8 3.7 -0.209098 17.9729 0.0744719 0 -3 2.7 0.105207 42.7476 -0.179907 0 -1.9 1.6 -8.82781e-32 -1.59028e-15 -3.18055e-15 0 -8.3 1.9 -14.7746 -1.25402 -0.0707604 0 -4.5 5.68434e-14 -78.1266 0.00818007 0.0077309 -1.13687e-13 -3.4 2.27374e-13 -62.9441 -0.0202082 0.0164068 -0.25 -2.2 0.4 -8.82781e-32 -1.59028e-15 -3.18055e-15 1.13687e-13 -8.3 1 -45.1619 6.16378 4.3822 2.84217e-14 -4.65 -5.68434e-14 -65.4586 0.00644317 0.0235349 1.13687e-13 -3.3 0 -47.1227 0.00329205 0.00554786 -0.5 -2.15 -0.8 -8.82781e-32 -1.59028e-15 -3.18055e-15 1.13687e-13 -7.75 -0.2 -66.5061 3.62966 7.28321 2.84217e-14 -3.8 5.68434e-14 -42.0166 0.00977274 0.00500686 0 -3.4 0 -28.4961 0.00571018 0.0049712 -0.75 -1.75 -1.85 -8.82781e-32 -1.59028e-15 -3.18055e-15 1.13687e-13 -7.15 -1 -71.6566 4.45741 10.0314 2.84217e-14 -3 5.68434e-14 -58.307 -0.00948054 0.00680792 2.27374e-13 -2.35 -1.13687e-13 -40.5903 -0.00725998 -0.00315332 -5 17 -1.13687e-13 -3.70223 9.65312 -4.70696 -6.45 0 -1.13687e-13 -1.67466 -0.439559 1.88422 -6.45 0 0 -37.8306 -1.71191 12.5489 1.13687e-13 -32.4 -2 28.9772 -46.5382 46.0014 1.13687e-13 -25.65 2 -43.1134 -18.8656 31.1409 0.5 -1.5 2.65 65.9139 -11.1709 -14.5418 2.27374e-13 -3.8 3.7 -0.11724 -0.0971199 -0.129397 2.27374e-13 -3 2.7 0.468416 37.0817 -0.769723 0 -1.9 1.6 1.57142e-06 -1.66998e-05 -4.53609e-07 0 -8.3 1.9 19.8293 -6.95525 1.04092 0 -4.5 1.13687e-13 60.4451 -0.00420712 -0.00135722 0 -3.4 0 42.4513 -0.00312012 0.00183667 0.25 -2.2 0.4 1.57142e-06 -1.66998e-05 -4.53609e-07 5.68434e-14 -8.3 1 25.7334 -6.25396 0.598815 -1.13687e-13 -4.65 0 88.1017 0.0149098 -0.0163089 1.13687e-13 -3.3 0 83.8174 -0.00456511 -0.0136459 0.5 -2.15 -0.8 1.57142e-06 -1.66998e-05 -4.53609e-07 0 -7.75 -0.2 37.8273 -4.68221 -0.419708 1.13687e-13 -3.8 1.13687e-13 85.0901 0.00553088 -0.00230541 0 -3.4 0 76.0566 -0.00400288 -0.00478644 0.75 -1.75 -1.85 1.57142e-06 -1.66998e-05 -4.53609e-07 0 -7.15 -1 51.2764 -4.24484 -1.27947 0 -3 0 59.2937 9.61255e-05 0.0112671 1.13687e-13 -2.35 0 41.4785 -0.000688334 -0.00628485 8 0 0 31.2817 -29.2789 45.3598 -1.13687e-13 -45 -1 -0.1941 45.8852 -13.0293 0 -41 -2 9.28827 -29.5503 -3.36962 -1.13687e-13 -7.5 12.5 1.13695e-07 1.81564e-06 -2.56235e-06 0 2.84217e-14 4 6.28632 0.504553 15.5762 -8 0 0 3.33321 0.181457 -20.5946 0 -45 -1 -0.100669 8.09824 -0.761517 0 -41 -2 4.56835 -6.74869 8.65227 5.68434e-14 -7.5 12.5 -0.000181217 2.68e-06 1.74631e-05 0 0 4 -0.877525 4.86206 24.5747 
164.374 92.0622 1021.41 -3.68802 -4.01485 44.8182 0 8 0 9.02963 3.5265 -4.42285 -1.13687e-13 8 0 -1.30188 0.104531 -3.20317 0 8 0 -0.651801 0.0432154 -1.60228 1.13687e-13 8 0 -0.65153 0.043145 -1.60156 5.68434e-14 17 0 -1.8174 4.55751 16.2205 1.13687e-13 10.8 0 -4.60822 -5.56836 37.7861 5 17 1.13687e-13 -7.10709 7.74655 0.702015 6.45 -5.68434e-14 -1.13687e-13 0.379045 0.328676 0.401256 6.45 0 0 0.0264918 -9.16268 8.63362 0 -32.4 -2 -12.1599 -59.0798 17.1696 1.13687e-13 -25.65 2 20.1531 -1.98039 39.8396 -0.5 -1.5 2.65 -10.3238 -17.7498 -5.33107 0 -3.8 3.7 -0.2167 17.222 0.088397 0 -3 2.7 0.13557 44.5971 -0.230773 0 -1.9 1.6 3.18055e-15 -4.77083e-15 -3.18055e-15 -1.13687e-13 -8.3 1.9 -14.6335 -1.45042 -0.0808139 1.13687e-13 -4.5 5.68434e-14 -77.1832 0.0128084 0.0157211 0 -3.4 -1.7053e-13 -61.5868 -0.0176715 0.0275073 -0.25 -2.2 0.4 3.18055e-15 -4.77083e-15 -3.18055e-15 0 -8.3 1 -44.4714 6.0208 4.24823 5.68434e-14 -4.65 5.68434e-14 -64.4112 0.0103693 0.0203183 -1.13687e-13 -3.3 -5.68434e-14 -46.1532 0.00351793 0.0102282 -0.5 -2.15 -0.8 3.18055e-15 -4.77083e-15 -3.18055e-15 0 -7.75 -0.2 -65.7046 3.68845 7.1607 5.68434e-14 -3.8 -1.13687e-13 -41.0631 0.0192538 0.00477972 0 -3.4 5.68434e-14 -27.9196 0.0104074 0.0055249 -0.75 -1.75 -1.85 3.18055e-15 -4.77083e-15 -3.18055e-15 0 -7.15 -1 -70.676 4.74468 9.92412 0 -3 5.68434e-14 -58.2896 0.00151529 0.00703279 1.13687e-13 -2.35 0 -40.5769 -0.000283083 0.00243347 -5 17 1.13687e-13 -3.79975 9.57194 -4.76272 -6.45 0 1.13687e-13 -1.6929 -0.456801 1.88532 -6.45 0 1.13687e-13 -38.056 -1.38432 12.3243 -1.13687e-13 -32.4 -2 29.5479 -47.0123 46.4836 -2.27374e-13 -25.65 2 -42.7279 -18.8865 31.3933 0.5 -1.5 2.65 65.8082 -11.2965 -14.1012 0 -3.8 3.7 -0.117922 -0.0971199 -0.130023 0 -3 2.7 0.469761 37.0817 -0.77194 5.68434e-14 -1.9 1.6 1.57142e-06 -1.66998e-05 -4.53609e-07 2.84217e-14 -8.3 1.9 20.5706 -6.68828 1.04052 0 -4.5 0 60.536 0.00102124 -0.00124786 -1.13687e-13 -3.4 -1.13687e-13 42.5276 0.000662476 0.00138881 0.25 -2.2 0.4 1.57142e-06 -1.66998e-05 -4.53609e-07 5.68434e-14 -8.3 1 26.3773 -5.99737 0.557927 0 -4.65 0 87.927 0.0151291 -0.017496 0 -3.3 0 83.3125 -0.00498679 -0.0105374 0.5 -2.15 -0.8 1.57142e-06 -1.66998e-05 -4.53609e-07 5.68434e-14 -7.75 -0.2 38.3696 -4.46326 -0.511468 -1.13687e-13 -3.8 -1.13687e-13 84.9344 0.00565892 -0.00245783 0 -3.4 0 75.7037 -0.00440265 -0.00372161 0.75 -1.75 -1.85 1.57142e-06 -1.66998e-05 -4.53609e-07 0 -7.15 -1 52.0852 -4.07976 -1.41534 0 -3 -5.68434e-14 59.2874 -0.000299305 0.0118097 0 -2.35 -5.68434e-14 41.4732 -0.0017733 -0.00623199 8 0 -1.13687e-13 31.3592 -29.3367 45.5201 0 -45 -1 -0.158116 45.8591 -13.1491 1.13687e-13 -41 -2 9.2588 -29.8481 -3.14252 -1.13687e-13 -7.5 12.5 1.13695e-07 1.81648e-06 -2.56235e-06 1.13687e-13 1.42109e-14 4 6.44466 0.503593 15.5574 -8 -2.84217e-14 0 3.25073 0.497667 -20.5906 0 -45 -1 -0.0992524 7.78427 -0.735041 -5.68434e-14 -41 -2 4.71644 -6.7304 8.87292 -5.68434e-14 -7.5 12.5 -0.000181217 2.67821e-06 1.74631e-05 -1.13687e-13 0 4 -1.00558 5.05943 24.5708 
